 <svg  version="1.0" xmlns="http://www.w3.org/2000/svg"  width="900.000000pt" height="693.000000pt" viewBox="0 0 900.000000 693.000000"  preserveAspectRatio="xMidYMid meet">  <g transform="translate(0.000000,693.000000) scale(0.100000,-0.100000)" fill="#ffffff" stroke="none"> <path d="M4040 6545 c-30 -7 -68 -13 -85 -14 -31 -1 -127 -21 -225 -47 -124 -34 -166 -46 -195 -56 -16 -5 -41 -12 -55 -15 -14 -3 -34 -12 -45 -19 -11 -8 -29 -14 -40 -14 -11 0 -29 -7 -39 -15 -11 -8 -26 -15 -33 -15 -22 0 -240 -104 -348 -166 -33 -19 -69 -39 -80 -45 -64 -33 -283 -186 -364 -256 -9 -7 -47 -40 -86 -72 -115 -95 -214 -198 -393 -405 -13 -16 -45 -58 -70 -95 -26 -36 -49 -68 -52 -71 -17 -16 -50 -69 -180 -290 -30 -52 -126 -255 -155 -330 -9 -25 -23 -60 -31 -78 -8 -18 -14 -40 -14 -48 0 -9 -6 -28 -14 -42 -12 -25 -20 -49 -59 -187 -15 -50 -34 -137 -61 -275 -25 -125 -31 -232 -31 -535 0 -303 6 -410 31 -535 27 -138 46 -225 61 -275 50 -175 46 -165 121 -360 65 -172 278 -565 332 -615 3 -3 26 -35 52 -71 25 -37 57 -79 70 -95 190 -220 391 -424 417 -424 14 0 14 25 2 49 -6 10 -19 64 -31 121 -26 127 -24 367 3 494 17 76 67 236 85 273 5 10 33 65 61 123 29 58 74 146 102 195 27 50 61 113 75 140 14 28 40 77 58 110 34 63 103 193 185 348 27 50 59 110 71 132 12 22 45 83 72 135 28 52 63 118 78 145 15 28 56 104 91 170 81 155 93 178 135 250 18 33 46 83 60 110 14 28 41 77 59 110 18 33 62 119 98 190 87 173 90 197 85 729 -3 351 -5 410 -18 416 -8 4 -37 17 -65 30 -86 38 -107 82 -113 233 -4 103 -1 125 18 176 25 67 57 101 118 125 38 14 120 16 796 16 731 0 755 -1 797 -20 60 -27 83 -48 108 -97 18 -37 21 -60 21 -186 0 -144 0 -144 -30 -185 -30 -42 -75 -73 -120 -82 l-25 -5 -3 -485 c-2 -430 0 -491 14 -540 18 -58 50 -128 102 -222 30 -53 44 -81 122 -223 15 -27 45 -81 66 -120 51 -93 94 -174 142 -265 22 -41 49 -91 60 -110 12 -19 33 -57 47 -85 14 -27 41 -77 60 -110 19 -33 46 -82 60 -110 14 -27 47 -90 75 -140 27 -49 61 -112 75 -140 15 -27 41 -77 59 -110 18 -33 54 -100 81 -150 26 -49 66 -124 88 -165 125 -232 190 -379 222 -500 9 -36 21 -81 27 -100 6 -19 13 -120 15 -223 5 -191 -1 -246 -42 -389 -7 -27 -9 -50 -5 -53 15 -9 195 164 323 310 115 131 118 135 165 204 26 36 49 68 52 71 55 51 264 437 334 618 68 176 69 179 119 357 15 50 34 137 61 275 25 125 31 232 31 535 0 303 -6 410 -31 535 -27 138 -46 225 -61 275 -39 138 -47 162 -59 187 -8 14 -14 33 -14 42 0 8 -6 30 -14 48 -8 18 -22 53 -31 78 -29 75 -125 278 -155 330 -130 221 -163 274 -180 290 -3 3 -26 35 -52 71 -25 37 -57 79 -70 95 -240 278 -347 380 -575 551 -131 98 -206 149 -268 183 -11 6 -47 26 -80 45 -118 66 -327 165 -348 165 -7 0 -22 7 -33 15 -10 8 -28 15 -39 15 -11 0 -29 6 -40 14 -11 7 -31 16 -45 19 -14 3 -38 10 -55 15 -16 6 -57 18 -90 27 -33 9 -80 23 -105 31 -25 8 -62 14 -82 14 -20 0 -49 5 -65 11 -84 34 -188 42 -598 44 -307 2 -424 -1 -465 -10z"/> <path d="M3798 5653 c-14 -4 -18 -15 -18 -53 0 -50 9 -60 53 -60 40 0 97 -49 123 -103 l24 -52 0 -470 c0 -422 -2 -481 -20 -580 -10 -60 -26 -130 -35 -154 -14 -40 -94 -206 -115 -241 -5 -8 -35 -62 -66 -119 -44 -81 -53 -105 -43 -112 8 -5 369 -9 802 -9 699 0 788 2 794 15 3 9 -1 23 -9 33 -8 9 -18 24 -22 32 -3 8 -29 56 -57 105 -63 113 -149 290 -149 307 0 7 -7 31 -15 54 -11 33 -14 148 -16 617 -2 574 -2 575 20 605 25 36 80 72 109 72 43 0 52 10 52 60 0 38 -4 50 -17 53 -22 6 -1371 5 -1395 0z m738 -495 c37 -28 42 -36 53 -76 18 -64 -21 -130 -89 -151 -32 -10 -46 -9 -77 4 -58 24 -82 60 -83 121 0 48 3 54 40 88 33 30 48 36 84 36 29 0 53 -7 72 -22z m221 -583 c27 -32 33 -46 33 -86 0 -42 -5 -53 -35 -83 -73 -73 -172 -55 -214 40 -19 42 -19 48 -5 82 30 72 63 94 139 88 43 -3 54 -9 82 -41z m-392 -409 c48 -20 95 -89 95 -138 0 -64 -33 -115 -94 -145 l-53 -25 -46 20 c-101 45 -136 149 -76 231 47 65 107 85 174 57z"/> <path d="M4494 3343 c-3 -16 -11 -46 -18 -68 -7 -22 -21 -76 -30 -120 -10 -44 -24 -102 -31 -130 -38 -150 -65 -263 -74 -315 -5 -25 -11 -53 -15 -62 -7 -15 -16 -52 -46 -183 -5 -22 -18 -78 -30 -125 -12 -47 -25 -103 -30 -125 -5 -22 -12 -53 -16 -68 l-6 -28 98 3 c97 3 99 3 102 28 1 14 9 43 16 65 7 22 21 76 31 120 9 44 24 98 31 120 8 23 14 50 14 61 0 11 6 40 14 65 16 53 50 187 76 304 5 22 14 60 20 85 7 25 18 71 26 103 23 96 42 170 53 213 22 85 23 84 -84 84 l-95 0 -6 -27z"/> <path d="M4887 3143 c-4 -3 -7 -50 -7 -104 l0 -98 63 -36 c34 -19 69 -40 77 -45 8 -5 38 -21 65 -35 28 -14 77 -41 110 -60 33 -19 70 -39 83 -44 44 -20 32 -32 -109 -105 -57 -29 -120 -63 -139 -74 -19 -12 -58 -33 -87 -48 -29 -16 -54 -36 -57 -48 -9 -33 -7 -160 3 -175 10 -15 68 11 266 119 50 27 108 59 130 70 22 12 63 35 90 50 28 15 68 37 91 49 80 42 86 53 82 149 -4 99 10 86 -208 205 -25 14 -61 34 -80 45 -19 12 -57 33 -85 47 -27 14 -63 34 -80 44 -68 40 -184 101 -192 101 -6 0 -13 -3 -16 -7z"/> <path d="M3965 3131 c-6 -4 -46 -28 -90 -51 -44 -24 -93 -51 -110 -61 -16 -10 -48 -27 -70 -39 -22 -12 -65 -36 -95 -53 -116 -65 -136 -76 -175 -97 -22 -12 -43 -27 -47 -34 -4 -6 -8 -50 -8 -98 0 -84 1 -87 28 -105 43 -28 63 -40 117 -68 28 -14 64 -34 80 -44 37 -22 171 -95 245 -134 30 -16 75 -40 99 -53 24 -13 55 -24 68 -24 24 0 24 1 21 92 l-3 92 -40 27 c-22 15 -58 37 -80 49 -22 12 -60 33 -85 47 -25 14 -72 39 -105 57 -76 40 -105 59 -105 68 0 4 24 19 53 33 28 14 66 34 82 44 25 15 111 62 210 116 76 41 75 39 75 146 l0 99 -28 0 c-15 0 -32 -4 -37 -9z"/> <path d="M3771 1948 c-60 -24 -116 -75 -125 -116 -4 -15 -10 -105 -15 -200 -7 -167 -8 -174 -33 -198 -14 -15 -41 -29 -59 -33 l-34 -7 -3 -73 c-3 -79 6 -101 42 -101 29 0 64 -37 76 -81 6 -19 10 -83 10 -143 0 -157 15 -230 55 -275 44 -49 113 -73 196 -69 l64 3 5 63 c6 72 -1 92 -34 92 -13 0 -35 9 -48 20 -25 19 -25 23 -30 177 -5 175 -7 181 -81 259 l-39 42 31 31 c18 18 44 51 58 74 25 40 27 51 32 202 6 158 6 160 31 172 14 7 37 13 52 13 24 0 27 4 34 47 4 25 3 62 -2 82 -9 36 -9 36 -69 38 -42 2 -76 -4 -114 -19z"/> <path d="M4974 1957 c-3 -8 -4 -45 -2 -83 l3 -69 45 -7 c25 -4 51 -15 58 -25 8 -12 12 -63 12 -167 0 -167 13 -216 71 -258 37 -28 37 -47 -1 -83 -62 -59 -70 -90 -70 -260 l0 -154 -28 -19 c-15 -11 -41 -22 -57 -24 l-30 -3 0 -75 0 -75 70 -3 c101 -4 173 30 223 105 14 22 18 59 23 203 5 161 7 180 28 214 15 24 33 39 52 43 43 8 50 24 47 105 -3 70 -4 73 -29 76 -14 2 -41 19 -60 38 l-33 34 -3 163 c-2 89 -9 179 -15 199 -15 49 -61 92 -128 117 -64 24 -168 29 -176 8z"/> <path d="M4527 1733 c-4 -3 -7 -32 -7 -64 0 -51 3 -59 28 -75 34 -22 47 -38 74 -94 19 -40 21 -62 22 -195 0 -134 -2 -155 -22 -197 -12 -25 -40 -62 -62 -81 -38 -32 -40 -37 -40 -91 0 -68 11 -75 73 -51 76 29 141 101 178 200 21 54 23 77 23 225 0 163 -1 166 -32 240 -48 113 -134 190 -213 190 -9 0 -19 -3 -22 -7z"/> <path d="M4248 1643 c-38 -10 -78 -116 -98 -258 -11 -78 -10 -106 9 -237 21 -141 88 -216 155 -173 39 26 43 58 15 118 -22 47 -24 63 -23 206 0 156 0 156 33 225 l34 68 -29 24 c-16 13 -34 23 -41 24 -6 0 -17 2 -25 4 -7 2 -21 2 -30 -1z"/> </g> </svg> 